<?xml version="1.0" encoding="UTF-8" standalone="no"?>
<svg width="16px" height="16px" viewBox="0 0 16 16" version="1.1" xmlns="http://www.w3.org/2000/svg" xmlns:xlink="http://www.w3.org/1999/xlink">
    <!-- Generator: Sketch 48.1 (47250) - http://www.bohemiancoding.com/sketch -->
    <title>锁帖</title>
    <desc>Created with Sketch.</desc>
    <defs></defs>
    <g id="Symbols" stroke="none" stroke-width="1" fill="none" fill-rule="evenodd">
        <g id="锁帖">
            <g transform="translate(1.000000, 0.000000)">
                <path d="M2,6.5 C1.17157288,6.5 0.5,7.17157288 0.5,8 L0.5,14 C0.5,14.8284271 1.17157288,15.5 1.99999988,15.5 L12,15.4999976 C12.8284264,15.4999976 13.499999,14.8284258 13.5,13.999999 L13.500012,7.99999759 C13.500012,7.17157047 12.8284392,6.49999759 12.0000122,6.49999759 L2.00000012,6.5 Z" id="Rectangle-14" stroke="#979797"></path>
                <path d="M3,6.5 L11,6.5 L11,4.5 C11,2.290861 9.209139,0.5 7,0.5 C4.790861,0.5 3,2.290861 3,4.5 L3,6.5 Z" id="Rectangle-15" stroke="#979797"></path>
                <path d="M7,8.99998636 L7,8.99998636 C7.27613484,8.99997882 7.49999247,9.22382423 7.5,9.49995907 C7.5,9.49996362 7.5,9.49996817 7.5,9.49997271 L7.5,12.5 C7.5,12.7761424 7.27614237,13 7,13 L7,13 C6.72385763,13 6.5,12.7761424 6.5,12.5 L6.5,9.5 C6.5,9.22385542 6.72385542,8.99999389 7,8.99998636 Z" id="Rectangle-16" fill="#979797"></path>
            </g>
        </g>
    </g>
</svg>