<?xml version="1.0" encoding="UTF-8" standalone="no"?>
<svg width="40px" height="40px" viewBox="0 0 40 40" version="1.1" xmlns="http://www.w3.org/2000/svg" xmlns:xlink="http://www.w3.org/1999/xlink">
    <!-- Generator: Sketch 45.1 (43504) - http://www.bohemiancoding.com/sketch -->
    <title>menu_rock_on</title>
    <desc>Created with Sketch.</desc>
    <defs>
        <linearGradient x1="50%" y1="0%" x2="50%" y2="104.681756%" id="linearGradient-1">
            <stop stop-color="#F8C268" offset="0%"></stop>
            <stop stop-color="#F69957" offset="100%"></stop>
        </linearGradient>
        <linearGradient x1="54.981029%" y1="90.0064444%" x2="54.9810305%" y2="0%" id="linearGradient-2">
            <stop stop-color="#F69957" offset="0%"></stop>
            <stop stop-color="#F8C268" offset="100%"></stop>
        </linearGradient>
        <linearGradient x1="14.6446609%" y1="14.6446609%" x2="85.3553391%" y2="85.3553391%" id="linearGradient-3">
            <stop stop-color="#F8C268" offset="0%"></stop>
            <stop stop-color="#F69957" offset="100%"></stop>
        </linearGradient>
    </defs>
    <g id="menu" stroke="none" stroke-width="1" fill="none" fill-rule="evenodd">
        <g id="menu_rock_on">
            <path d="M27.7992809,8.99629191 C27.7995322,8.99752786 27.7997833,8.99876389 27.8000341,9 L27.799161,9 C27.7730302,9.77766126 27.1395447,10.4000001 26.3499997,10.4000001 C25.5651197,10.4000001 24.9258921,9.78175159 24.9007666,8.99793509 C24.0772754,6.11450485 21.3702866,4 18.1578947,4 C14.2893624,4 11.1578947,7.06331487 11.1578947,10.8421053 L11.1578947,15 L15.1027051,15 L21.2138909,15 L24.5789474,15 L28,15 L28,18 L22.3657088,18 L13.6354433,18 L8,18 L8,11 C8,5.4771525 12.4735253,1 18,1 C22.8203597,1 26.8441239,4.40970546 27.7897542,8.95000005 L27.7999997,8.95000005 C27.7999997,8.96548859 27.799759,8.98092041 27.7992809,8.99629191 Z" id="Combined-Shape" fill="url(#linearGradient-1)"></path>
            <path d="M7,20.997932 L7,32.002068 C7,33.6576921 8.3450479,35 10.0088187,35 L26.9911813,35 C28.6547083,35 30,33.6569891 30,32.002068 L30,20.997932 C30,19.3423079 28.6549521,18 26.9911813,18 L10.0088187,18 C8.34529173,18 7,19.3430109 7,20.997932 Z M4,20.997932 C4,17.6853656 6.68922576,15 10.0088187,15 L26.9911813,15 C30.3097602,15 33,17.6834058 33,20.997932 L33,32.002068 C33,35.3146344 30.3107742,38 26.9911813,38 L10.0088187,38 C6.69023979,38 4,35.3165942 4,32.002068 L4,20.997932 Z" id="Rectangle" fill="url(#linearGradient-2)" fill-rule="nonzero"></path>
            <rect id="Rectangle-2" stroke="url(#linearGradient-2)" stroke-width="3" x="18.5" y="23.5" width="1" height="6" rx="0.5"></rect>
            <path d="M31.0606602,8.30330086 C30.4748737,7.71751442 30.4702471,6.77239363 31.0596533,6.18298742 L33.1829874,4.05965326 C33.7682178,3.47442293 34.7134304,3.47078974 35.3033009,4.06066017 C35.8890873,4.64644661 35.893714,5.5915674 35.3043078,6.18097361 L33.1809736,8.30430777 C32.5957433,8.88953811 31.6505306,8.89317129 31.0606602,8.30330086 Z M31.3882286,11.4488887 C31.6026413,10.6486896 32.4188266,10.1721224 33.2239704,10.38786 L36.1244988,11.1650543 C36.9239383,11.3792634 37.3996911,12.196025 37.1837835,13.001803 C36.9693708,13.8020022 36.1531855,14.2785694 35.3480417,14.0628317 L32.4475133,13.2856375 C31.6480738,13.0714283 31.172321,12.2546667 31.3882286,11.4488887 Z" id="Combined-Shape" fill="url(#linearGradient-3)"></path>
        </g>
    </g>
</svg>