<?xml version="1.0" encoding="UTF-8" standalone="no"?>
<svg width="120px" height="112px" viewBox="0 0 120 112" version="1.1" xmlns="http://www.w3.org/2000/svg" xmlns:xlink="http://www.w3.org/1999/xlink">
    <!-- Generator: Sketch 48.1 (47250) - http://www.bohemiancoding.com/sketch -->
    <title>folder_photo</title>
    <desc>Created with Sketch.</desc>
    <defs></defs>
    <g id="文件图标集" stroke="none" stroke-width="1" fill="none" fill-rule="evenodd">
        <g id="folder_photo">
            <g id="folder_cover" fill="#FDC94A">
                <path d="M54.6585366,8 L108,8 C114.627417,8 120,13.3519984 120,20 L120,100 C120,106.648002 114.627417,112 108,112 L12,112 C5.372583,112 2.13162821e-14,106.648002 2.13162821e-14,100 L2.13162821e-14,20 L0,8 C0,3.48575287 4.50437092,0 10,0 L47,0 C49.3006535,0 52.2601169,1.71978393 53,4 L54.6585366,8 Z" id="矩形_19"></path>
            </g>
            <g id="Group" transform="translate(32.000000, 33.000000)" fill="#E4A917">
                <path d="M7.85454545,8 L48.1454545,8 C54.0412026,8 56,10.0134545 56,16 L56,51 C56,56.9865455 54.0412026,59 48.1454545,59 L7.85454545,59 C1.96003636,59 0,56.9865455 0,51 L3.55271368e-15,16 C3.55271368e-15,10.0134545 1.96003636,8 7.85454545,8 Z M7,11 C4.790861,11 3,12.790861 3,15 L3,52 C3,54.209139 4.790861,56 7,56 L49,56 C51.209139,56 53,54.209139 53,52 L53,15 C53,12.790861 51.209139,11 49,11 L7,11 Z" id="矩形_49"></path>
                <path d="M6.5,1.35525272e-20 L48.5,2.22044605e-16 C49.3284271,6.98632775e-17 50,0.671572875 50,1.5 L50,1.5 C50,2.32842712 49.3284271,3 48.5,3 L6.5,3 C5.67157288,3 5,2.32842712 5,1.5 L5,1.5 C5,0.671572875 5.67157288,1.52181327e-16 6.5,0 Z" id="相册_拷贝_2" fill-rule="nonzero"></path>
                <circle id="Oval-2" cx="13" cy="21" r="3"></circle>
                <path d="M5,56 L3,56 L3,50.2417489 C5.35940151,43.6868762 11.6323615,39 19,39 C21.0406801,39 22.9973794,39.3595644 24.8101994,40.0187947 C29.0812178,33.3897488 36.5279685,29 45,29 C47.8050834,29 50.4977686,29.4812338 53,30.3656457 L53,33.5775524 C50.5343167,32.5608462 47.8326547,32 45,32 C36.6582355,32 29.4524636,36.8637623 26.0638561,43.9101149 C23.9902772,42.6959509 21.5764126,42 19,42 C11.2680135,42 5,48.2680135 5,56 Z" id="Combined-Shape" fill-rule="nonzero"></path>
            </g>
        </g>
    </g>
</svg>