<?xml version="1.0" encoding="UTF-8" standalone="no"?>
<svg width="120px" height="120px" viewBox="0 0 120 120" version="1.1" xmlns="http://www.w3.org/2000/svg" xmlns:xlink="http://www.w3.org/1999/xlink">
    <!-- Generator: Sketch 45.1 (43504) - http://www.bohemiancoding.com/sketch -->
    <title>share_wechat</title>
    <desc>Created with Sketch.</desc>
    <defs>
        <linearGradient x1="50%" y1="0%" x2="50%" y2="100%" id="linearGradient-1">
            <stop stop-color="#26BD47" offset="0%"></stop>
            <stop stop-color="#33D363" offset="100%"></stop>
        </linearGradient>
    </defs>
    <g id="more" stroke="none" stroke-width="1" fill="none" fill-rule="evenodd">
        <g id="share_wechat">
            <circle id="Oval" fill="url(#linearGradient-1)" cx="60" cy="60" r="60"></circle>
            <g id="Page-1" transform="translate(30.000000, 36.000000)" fill="#FFFFFF">
                <path d="M14.300625,14.3015625 C12.7125,14.3015625 11.11125,13.2384375 11.11125,11.6503125 C11.11125,10.0565625 12.7125,9.0065625 14.300625,9.0065625 C15.88875,9.0065625 16.944375,10.0565625 16.944375,11.6503125 C16.944375,13.2384375 15.88875,14.3015625 14.300625,14.3015625 M29.124375,9.0065625 C30.72,9.0065625 31.775625,10.0565625 31.775625,11.6503125 C31.775625,13.2384375 30.72,14.3015625 29.124375,14.3015625 C27.538125,14.3015625 25.944375,13.2384375 25.944375,11.6503125 C25.944375,10.0565625 27.538125,9.0065625 29.124375,9.0065625 M40.513125,14.7496875 C41.20125,14.7496875 41.88,14.8003125 42.553125,14.8753125 C40.72125,6.3403125 31.5975,0.0009375 21.181875,0.0009375 C9.538125,0.0009375 0,7.9359375 0,18.0140625 C0,23.8321875 3.1725,28.6096875 8.476875,32.3146875 L6.358125,38.6859375 L13.7625,34.9734375 C16.411875,35.4984375 18.538125,36.0365625 21.181875,36.0365625 C21.845625,36.0365625 22.505625,36.0046875 23.16,35.9521875 C22.745625,34.5365625 22.505625,33.0534375 22.505625,31.5140625 C22.505625,22.2609375 30.451875,14.7496875 40.513125,14.7496875" id="Fill-1"></path>
                <path d="M47.6641875,28.6093125 C46.6160625,28.6093125 45.5604375,27.5593125 45.5604375,26.4905625 C45.5604375,25.4349375 46.6160625,24.3718125 47.6641875,24.3718125 C49.2523125,24.3718125 50.3154375,25.4349375 50.3154375,26.4905625 C50.3154375,27.5593125 49.2523125,28.6093125 47.6641875,28.6093125 M36.0129375,28.6093125 C34.9591875,28.6093125 33.8941875,27.5593125 33.8941875,26.4905625 C33.8941875,25.4349375 34.9591875,24.3718125 36.0129375,24.3718125 C37.6160625,24.3718125 38.6641875,25.4349375 38.6641875,26.4905625 C38.6641875,27.5593125 37.6160625,28.6093125 36.0129375,28.6093125 M59.8460625,31.2605625 C59.8460625,22.7911875 51.3729375,15.8874375 41.8535625,15.8874375 C31.7754375,15.8874375 23.8385625,22.7911875 23.8385625,31.2605625 C23.8385625,39.7430625 31.7754375,46.6318125 41.8535625,46.6318125 C43.9629375,46.6318125 46.0910625,46.0993125 48.2098125,45.5686875 L54.0204375,48.7505625 L52.4266875,43.4555625 C56.6791875,40.2661875 59.8460625,36.0361875 59.8460625,31.2605625" id="Fill-3"></path>
            </g>
        </g>
    </g>
</svg>