<?xml version="1.0" encoding="UTF-8" standalone="no"?>
<svg width="120px" height="120px" viewBox="0 0 120 120" version="1.1" xmlns="http://www.w3.org/2000/svg" xmlns:xlink="http://www.w3.org/1999/xlink">
    <!-- Generator: Sketch 45.1 (43504) - http://www.bohemiancoding.com/sketch -->
    <title>share_friend</title>
    <desc>Created with Sketch.</desc>
    <defs>
        <linearGradient x1="50%" y1="0%" x2="50%" y2="100%" id="linearGradient-1">
            <stop stop-color="#26BD47" offset="0%"></stop>
            <stop stop-color="#33D363" offset="100%"></stop>
        </linearGradient>
    </defs>
    <g id="more" stroke="none" stroke-width="1" fill="none" fill-rule="evenodd">
        <g id="share_friend">
            <circle id="Oval-Copy" fill="url(#linearGradient-1)" cx="60" cy="60" r="60"></circle>
            <g id="Page-1" transform="translate(32.000000, 32.000000)" fill="#FFFFFF">
                <path d="M54.5256242,37.001 L34.3317104,37.001 C36.0175537,35.806509 37.3529496,34.1480705 38.1529052,32.2111682 L53.4601038,16.3156654 C55.0945924,19.8704536 56.006,23.8263341 56.006,27.995 C56.006,31.1456665 55.4854444,34.1747579 54.5256242,37.001 L54.5256242,37.001 Z M53.7630748,38.992 C51.2132645,44.9543193 46.6529929,49.8522063 40.9341322,52.8339657 L27.0927447,38.992 L27.285957,38.992 C27.5210702,39.0070564 27.7581946,39.0147 27.9971,39.0147 C28.2360054,39.0147 28.4731298,39.0070564 28.708243,38.992 L53.7630748,38.992 L53.7630748,38.992 Z M1.47450497,19.0068 L21.6572194,19.0068 C20.8734175,19.5627663 20.1654762,20.2190589 19.5520115,20.9570223 L1.84436744,38.0085538 C0.652846437,34.8992727 0,31.5233721 0,27.995 C0,24.8509666 0.518433152,21.8279713 1.47450497,19.0068 L1.47450497,19.0068 Z M2.23514169,17.0168 C4.82153812,10.9572517 9.48406115,5.9953791 15.3293422,3.02445787 L29.4023148,17.0168 L28.7739657,17.0168 C28.5173396,16.9988338 28.2582842,16.9897 27.9971,16.9897 C27.7359158,16.9897 27.4768604,16.9988338 27.2202343,17.0168 L2.23514169,17.0168 L2.23514169,17.0168 Z M40.0093,2.69638438 C45.2081471,5.16662864 49.5248509,9.19130708 52.3584439,14.1695147 L40.0093,26.9932754 L40.0093,2.69638438 L40.0093,2.69638438 Z M37.9833,1.83022216 L37.9833,23.4032841 C37.2664297,21.8419143 36.1957653,20.4774723 34.8742548,19.4131245 L17.4271712,2.06526814 C20.6902418,0.733783884 24.260884,0 28.003,0 C31.5187428,0 34.8831304,0.647691022 37.9833,1.83022216 L37.9833,1.83022216 Z M16.9981,53.7464385 C10.7732177,51.0841929 5.70882291,46.2319802 2.77392222,40.1586053 L16.9981,26.461447 L16.9981,53.7464385 L16.9981,53.7464385 Z M18.9891,54.5090807 L18.9891,34.3086067 C20.1194253,35.9276409 21.6731075,37.2279036 23.4891327,38.0479539 L39.1339807,53.6921484 C35.722394,55.1711503 31.95849,55.991 28.003,55.991 C24.8494388,55.991 21.8176547,55.4698818 18.9891,54.5090807 L18.9891,54.5090807 Z" id="Combined-Shape"></path>
            </g>
        </g>
    </g>
</svg>