<?xml version="1.0" encoding="UTF-8" standalone="no"?>
<svg width="120px" height="120px" viewBox="0 0 120 120" version="1.1" xmlns="http://www.w3.org/2000/svg" xmlns:xlink="http://www.w3.org/1999/xlink">
    <!-- Generator: Sketch 45.1 (43504) - http://www.bohemiancoding.com/sketch -->
    <title>share_qq</title>
    <desc>Created with Sketch.</desc>
    <defs>
        <linearGradient x1="50%" y1="0%" x2="50%" y2="100%" id="linearGradient-1">
            <stop stop-color="#0097FE" offset="0%"></stop>
            <stop stop-color="#01B3FF" offset="100%"></stop>
        </linearGradient>
    </defs>
    <g id="more" stroke="none" stroke-width="1" fill="none" fill-rule="evenodd">
        <g id="share_qq">
            <circle id="Oval" fill="url(#linearGradient-1)" cx="60" cy="60" r="60"></circle>
            <path d="M81.9275929,76.664 C81.6735929,76.931 80.4565929,76.893 79.9115929,76.033 C79.3955929,75.219 78.7145929,74.275 77.9495929,73.302 C77.0315929,76.018 75.2225929,78.384 72.8365929,80.146 C75.7265929,80.814 77.7255929,82.226 77.7255929,83.864 C77.7255929,86.145 73.8605929,87.994 69.0925929,87.994 C64.3245929,87.994 60.4605929,86.145 60.4605929,83.864 C60.4605929,83.657 60.5025929,83.456 60.5635929,83.257 C60.3745929,83.234 60.1915929,83.198 60.0065929,83.166 C59.8205929,83.198 59.6365929,83.234 59.4485929,83.257 C59.5095929,83.456 59.5515929,83.657 59.5515929,83.864 C59.5515929,86.145 55.6865929,87.994 50.9195929,87.994 C46.1515929,87.994 42.2865929,86.145 42.2865929,83.864 C42.2865929,82.226 44.2845929,80.814 47.1745929,80.146 C44.7895929,78.384 42.9805929,76.018 42.0625929,73.302 C41.2975929,74.275 40.6155929,75.219 40.0995929,76.033 C39.5545929,76.893 38.3385929,76.931 38.0835929,76.664 C31.6105929,69.882 42.2865929,60.821 42.2865929,49.9 C42.9045929,40.69 49.9975929,32.288 59.5515929,32.025 L59.5515929,32.025 C59.7035929,32.021 59.8525929,32 60.0065929,32 C60.1595929,32 60.3075929,32.021 60.4605929,32.025 L60.4605929,32.025 C70.0145929,32.288 77.1075929,40.69 77.7255929,49.9 C77.7255929,60.592 88.4015929,69.882 81.9275929,76.664" id="Fill-1" fill="#FFFFFF"></path>
        </g>
    </g>
</svg>