<?xml version="1.0" encoding="UTF-8" standalone="no"?>
<svg width="120px" height="120px" viewBox="0 0 120 120" version="1.1" xmlns="http://www.w3.org/2000/svg" xmlns:xlink="http://www.w3.org/1999/xlink">
    <!-- Generator: Sketch 45.1 (43504) - http://www.bohemiancoding.com/sketch -->
    <title>more_115chat</title>
    <desc>Created with Sketch.</desc>
    <defs>
        <linearGradient x1="50%" y1="100%" x2="50%" y2="0%" id="linearGradient-1">
            <stop stop-color="#FFFFFF" offset="0%"></stop>
            <stop stop-color="#000000" offset="100%"></stop>
        </linearGradient>
        <circle id="path-2" cx="60" cy="60" r="60"></circle>
    </defs>
    <g id="more" stroke="none" stroke-width="1" fill="none" fill-rule="evenodd">
        <g id="more_115chat">
            <g id="Oval">
                <use fill="#FF8C00" xlink:href="#path-2"></use>
                <use fill-opacity="0.3" fill="url(#linearGradient-1)" style="mix-blend-mode: soft-light;" xlink:href="#path-2"></use>
            </g>
            <path d="M39.5433982,89.8884248 C38.2529265,90.354689 36.9151281,89.3224048 37.0388931,87.9558756 L37.7484221,80.1217369 C32.7992795,74.6534223 30,67.5445921 30,60 C30,43.4314575 43.4314575,30 60,30 C76.5685425,30 90,43.4314575 90,60 C90,76.5685425 76.5685425,90 60,90 C55.5059681,90 51.1502404,89.0097204 47.1788825,87.1296254 L39.5433982,89.8884248 Z M47.3338839,83.8838059 L48.4625423,84.4181281 C52.0553417,86.1190083 55.975055,87 60,87 C74.9116882,87 87,74.9116882 87,60 C87,45.0883118 74.9116882,33 60,33 C45.0883118,33 33,45.0883118 33,60 C33,66.7397256 35.4816271,73.1464402 39.9727016,78.1086346 L40.8547583,79.0832203 L40.1860719,86.4664029 L47.3338839,83.8838059 Z" id="Combined-Shape" fill="#FFFFFF"></path>
            <path d="M52,50 C53.6568542,50 55,51.3431458 55,53 C55,54.6568542 53.6568542,56 52,56 C50.3431458,56 49,54.6568542 49,53 C49,51.3431458 50.3431458,50 52,50 Z M52,65 C53.6568542,65 55,66.3431458 55,68 C55,69.6568542 53.6568542,71 52,71 C50.3431458,71 49,69.6568542 49,68 C49,66.3431458 50.3431458,65 52,65 Z M66.9181535,74.9360926 C66.2497236,75.4254727 65.3111331,75.2803242 64.8217529,74.6118943 C64.3323728,73.9434643 64.4775213,73.0048738 65.1459513,72.5154937 C69.1110468,69.6125133 71.5,65.0070334 71.5,60 C71.5,54.9738648 69.0926354,50.3528466 65.1022107,47.4525991 C64.4320817,46.9655482 64.2836675,46.0274685 64.7707184,45.3573395 C65.2577693,44.6872105 66.195849,44.5387964 66.8659781,45.0258473 C71.624997,48.4847103 74.5,54.0033763 74.5,60 C74.5,65.9738075 71.6469525,71.4739791 66.9181535,74.9360926 Z" id="Combined-Shape" fill="#FFFFFF" fill-rule="nonzero"></path>
        </g>
    </g>
</svg>