<?xml version="1.0" encoding="UTF-8" standalone="no"?>
<svg width="46px" height="46px" viewBox="0 0 46 46" version="1.1" xmlns="http://www.w3.org/2000/svg" xmlns:xlink="http://www.w3.org/1999/xlink">
    <!-- Generator: Sketch 48.1 (47250) - http://www.bohemiancoding.com/sketch -->
    <title>menu_history</title>
    <desc>Created with Sketch.</desc>
    <defs>
        <linearGradient x1="57.5878792%" y1="0%" x2="57.5878799%" y2="104.550617%" id="linearGradient-1">
            <stop stop-color="#82C9F0" offset="0%"></stop>
            <stop stop-color="#76ADF3" offset="100%"></stop>
        </linearGradient>
    </defs>
    <g id="3.0-icon-&amp;-button-&amp;-img" stroke="none" stroke-width="1" fill="none" fill-rule="evenodd">
        <g id="menu_history">
            <g transform="translate(3.000000, 3.000000)">
                <path d="M20,1 C9.50658975,1 1,9.50658975 1,20 C1,30.4934102 9.50658975,39 20,39 C30.4934102,39 39,30.4934102 39,20 C39,9.50658975 30.4934102,1 20,1 Z" id="椭圆_4" stroke="url(#linearGradient-1)" stroke-width="2"></path>
                <path d="M20,22 L28.0046024,22 C28.5543453,22 29,22.4438648 29,23 C29,23.5522847 28.5443356,24 28.0046024,24 L19.9953976,24 C19.8145769,24 19.6450173,23.9519794 19.4988733,23.8677379 C19.3524153,23.9518846 19.1822352,24 19,24 C18.4477153,24 18,23.5553691 18,22.9991283 L18,9.00087166 C18,8.4481055 18.4438648,8 19,8 C19.5522847,8 20,8.44463086 20,9.00087166 L20,22 Z" id="Combined-Shape" fill="#81C7F0"></path>
            </g>
        </g>
    </g>
</svg>