<?xml version="1.0" encoding="UTF-8" standalone="no"?>
<svg width="120px" height="142px" viewBox="0 0 120 142" version="1.1" xmlns="http://www.w3.org/2000/svg" xmlns:xlink="http://www.w3.org/1999/xlink">
    <!-- Generator: Sketch 48.1 (47250) - http://www.bohemiancoding.com/sketch -->
    <title>apk</title>
    <desc>Created with Sketch.</desc>
    <defs>
        <linearGradient x1="50%" y1="100%" x2="50%" y2="0%" id="linearGradient-1">
            <stop stop-color="#9E9EEE" offset="0%"></stop>
            <stop stop-color="#7D7CE5" offset="100%"></stop>
        </linearGradient>
        <linearGradient x1="50%" y1="100%" x2="50%" y2="0%" id="linearGradient-2">
            <stop stop-color="#7CBD38" offset="0%"></stop>
            <stop stop-color="#58A31B" offset="100%"></stop>
        </linearGradient>
    </defs>
    <g id="文件图标集" stroke="none" stroke-width="1" fill="none" fill-rule="evenodd">
        <g id="apk">
            <g>
                <g id="avi">
                    <g id="img">
                        <path d="M120,31 L120,136 C120,139.456977 117.441627,142 113.94958,142 L6.05042017,142 C2.55837286,142 0,139.456977 0,136 L0,6 C0,2.54302262 2.55837286,0 6.05042017,0 L88.7394958,0 L120,31 Z" id="矩形_20" fill="url(#linearGradient-2)"></path>
                        <text id="apk" font-family="Helvetica" font-size="24" font-weight="normal" fill="#FFFFFF">
                            <tspan x="12" y="30">apk</tspan>
                        </text>
                        <path d="M120,31 L95,31 C91.523486,31 89,28.476514 89,25 L89,0 L120,31 Z" id="矩形_21" fill="#C3DFA4"></path>
                    </g>
                </g>
                <g id="形状_2-path-+-形状_2-path-Mask" transform="translate(25.000000, 55.000000)" fill="#FFFFFF" opacity="0.6">
                    <path d="M4.98696973,25.4470639 C2.10468049,25.6016252 -0.111837911,28.0546803 0.0256487118,30.9378344 L0.0256487118,52.9009164 C-0.1667632,54.7939898 0.734705197,56.6316045 2.34954475,57.6381046 C3.96438431,58.6446048 6.01120452,58.6446048 7.62604408,57.6381046 C9.24088363,56.6316045 10.142352,54.7939898 9.94994012,52.9009164 L9.94994012,30.9378344 C10.0883268,28.0537414 7.87033466,25.5998711 4.98696973,25.4470639 Z M66.0138572,25.4470639 C63.1311481,25.6007441 60.9141306,28.0543516 61.0525362,30.9378344 L61.0525362,52.9009164 C60.8634713,54.7917287 61.7655903,56.6256208 63.3787823,57.6298759 C64.9919743,58.634131 67.0357401,58.634131 68.6489321,57.6298759 C70.2621241,56.6256208 71.1642431,54.7917287 70.9751782,52.9009164 L70.9751782,30.9378344 C71.1134743,28.0506872 68.8906046,25.5955003 66.003961,25.4470639 L66.0138572,25.4470639 Z M52.2267288,58.4345707 L57.7933705,58.4345707 L57.7933705,28.7293208 L13.2602364,28.7293208 L13.2602364,58.4329213 L52.7017489,58.4329213 L52.2267288,58.4345707 Z M48.6690262,6.99268181 L51.5273936,2.08084206 C51.7129608,1.76310748 51.7631545,1.38416072 51.6667067,1.02907163 C51.5702589,0.673982551 51.3352503,0.372501226 51.0144379,0.192307295 C50.695126,0.00761835807 50.3155107,-0.0426164061 49.9591508,0.0526603854 C49.6027909,0.147937177 49.2988959,0.380915994 49.1143575,0.700314899 L46.3285626,5.48350338 C39.6033444,1.77628137 31.4469638,1.77628137 24.7217456,5.48350338 L21.9260544,0.690418647 C21.5369863,0.029170334 20.6882672,-0.195879944 20.0226753,0.185709794 C19.7050137,0.368048951 19.4728331,0.669151217 19.3772456,1.02273219 C19.2816581,1.37631316 19.3304996,1.7533873 19.5130183,2.0709458 L22.3746845,6.98608431 C16.6554154,11.1144381 13.2637404,17.7358417 13.2552883,24.7894417 L57.7884224,24.7894417 C57.7767077,17.7372776 54.3833352,11.1186064 48.664078,6.99268181 L48.6690262,6.99268181 Z M27.1743668,16.5128763 C25.6525494,16.5001485 24.427979,15.2584034 24.4364464,13.7365564 C24.4449139,12.2147094 25.6832261,10.9866676 27.2050908,10.9908747 C28.7269556,10.9950819 29.9584591,12.2299514 29.9585123,13.7518219 C29.956338,14.4882981 29.660891,15.1935732 29.1374972,15.7117052 C28.6141034,16.2298372 27.9058792,16.5181432 27.1694186,16.5128763 L27.1743668,16.5128763 Z M43.8726427,16.5128763 C42.3508253,16.5001485 41.1262549,15.2584034 41.1347224,13.7365564 C41.1431898,12.2147094 42.381502,10.9866676 43.9033667,10.9908747 C45.4252315,10.9950819 46.656735,12.2299514 46.6567882,13.7518219 C46.6546139,14.4882981 46.3591669,15.1935732 45.8357731,15.7117052 C45.3123793,16.2298372 44.6041551,16.5181432 43.8676946,16.5128763 L43.8726427,16.5128763 Z" id="形状_3"></path>
                </g>
            </g>
        </g>
    </g>
</svg>