<?xml version="1.0" encoding="UTF-8" standalone="no"?>
<svg width="120px" height="120px" viewBox="0 0 120 120" version="1.1" xmlns="http://www.w3.org/2000/svg" xmlns:xlink="http://www.w3.org/1999/xlink">
    <!-- Generator: Sketch 45.1 (43504) - http://www.bohemiancoding.com/sketch -->
    <title>more_file_radar</title>
    <desc>Created with Sketch.</desc>
    <defs>
        <linearGradient x1="50%" y1="0%" x2="50%" y2="100%" id="linearGradient-1">
            <stop stop-color="#0097FE" offset="0%"></stop>
            <stop stop-color="#01B3FF" offset="100%"></stop>
        </linearGradient>
    </defs>
    <g id="more" stroke="none" stroke-width="1" fill="none" fill-rule="evenodd">
        <g id="more_file_radar">
            <g id="雷达">
                <circle id="Oval" fill="url(#linearGradient-1)" cx="60" cy="60" r="60"></circle>
                <path d="M72.8961009,38.5778811 L70.7007606,40.7732214 C67.5333757,39.0066204 63.8842422,38 60,38 L60,38 L60,38 C47.8497355,38 38,47.8497355 38,60 L38,60 L38,60 C38,72.1502645 47.8497355,82 60,82 C72.1502645,82 82,72.1502645 82,60 L82,60 C82,55.9561836 80.9089718,52.1671904 79.0052188,48.9113239 L81.1900084,46.7265343 C83.6040562,50.5725997 85,55.1229012 85,60 C85,73.8071187 73.8101546,85 60,85 C46.1928813,85 35,73.8101546 35,60 C35,46.1928813 46.1898454,35 60,35 C64.7180545,35 69.1308525,36.3066037 72.8961009,38.5778811 Z M63.0761547,48.3978273 L60.4615245,51.0124575 C60.3086578,51.0047379 60.1547852,51.0008315 60,51.0008315 C55.0283444,51.0008315 51,55.0302688 51,60.0008315 C51,64.9724872 55.0294373,69.0008315 60,69.0008315 C64.9716556,69.0008315 69,64.9713943 69,60.0008315 C69,59.6537432 68.9803609,59.3112526 68.9421335,58.9744092 L71.4664241,56.4501186 C71.8132459,57.5719203 72,58.7641001 72,60 C72,66.627417 66.6288742,72 60,72 C53.372583,72 48,66.6288742 48,60 C48,53.372583 53.3711258,48 60,48 C61.0633585,48 62.0944128,48.1382726 63.0761547,48.3978273 Z" id="Combined-Shape" fill="#FFFFFF"></path>
                <rect id="Rectangle-8" fill="#FFFFFF" transform="translate(69.747559, 50.639404) rotate(-45.000000) translate(-69.747559, -50.639404) " x="55.7475586" y="49.1394043" width="28" height="3" rx="1.5"></rect>
            </g>
        </g>
    </g>
</svg>