<?xml version="1.0" encoding="UTF-8" standalone="no"?>
<svg width="40px" height="40px" viewBox="0 0 40 40" version="1.1" xmlns="http://www.w3.org/2000/svg" xmlns:xlink="http://www.w3.org/1999/xlink">
    <!-- Generator: Sketch 45.1 (43504) - http://www.bohemiancoding.com/sketch -->
    <title>menu_offstar</title>
    <desc>Created with Sketch.</desc>
    <defs>
        <linearGradient x1="69.7191896%" y1="100%" x2="69.7191894%" y2="0%" id="linearGradient-1">
            <stop stop-color="#EFB950" offset="0%"></stop>
            <stop stop-color="#ECDA74" offset="100%"></stop>
        </linearGradient>
        <linearGradient x1="100%" y1="0%" x2="0%" y2="0%" id="linearGradient-2">
            <stop stop-color="#EDC165" offset="0%"></stop>
            <stop stop-color="#EEDC89" offset="100%"></stop>
        </linearGradient>
    </defs>
    <g id="menu" stroke="none" stroke-width="1" fill="none" fill-rule="evenodd">
        <g id="menu_offstar">
            <path d="M7.90020154,13.2641626 L10.5415283,15.9054893 L4.3446288,16.8238545 L10.1527977,22.5979837 C11.2298553,23.668729 11.7881648,25.4121497 11.5353539,26.9154567 L10.1769622,34.9929548 L17.2000748,31.227276 C18.5706816,30.4923789 20.4281449,30.4913156 21.8007347,31.227276 L28.8238473,34.9929548 L28.6610721,34.0250331 L32.1057954,37.4697564 C32.1318436,37.4958046 32.1581355,37.5214655 32.1846639,37.5467392 C32.061886,39.0089236 30.899548,39.5099442 29.2684136,38.6353564 L20.3831062,33.8711991 C19.8956036,33.6098081 19.1024743,33.6112727 18.6177034,33.8711991 L9.73239593,38.6353564 C7.78380095,39.6801614 6.50041908,38.7654335 6.86802221,36.5795297 L8.57689643,26.4179333 C8.66891501,25.8707569 8.42157835,25.107137 8.03772096,24.7255293 L0.826934856,17.5570033 C-0.741729453,15.9975324 -0.249720044,14.4719609 1.95081341,14.1458473 L7.90020154,13.2641626 Z M15.1486895,7.78472842 L17.7623716,2.38353646 C18.7222608,0.39991888 20.2825788,0.408247016 21.2384379,2.38353646 L25.7123287,11.6288623 C25.9532365,12.1266998 26.5934306,12.59621 27.1469919,12.6782464 L37.0499961,14.1458473 C39.2393614,14.4703058 39.7379941,16.0020507 38.1738747,17.5570033 L31.5279447,24.1639836 L29.4066152,22.0426541 L34.6561807,16.8238545 L26.7072025,15.6458355 C25.174353,15.418671 23.6863351,14.329371 23.0118906,12.9356269 L19.5004048,5.67911757 L17.3946452,10.0306841 L15.1486895,7.78472842 Z" id="Combined-Shape" fill="url(#linearGradient-1)" fill-rule="nonzero"></path>
            <rect id="Rectangle-11" fill="url(#linearGradient-2)" transform="translate(22.202796, 21.202796) rotate(-315.000000) translate(-22.202796, -21.202796) " x="2.2027958" y="19.7027958" width="40" height="3" rx="1.5"></rect>
        </g>
    </g>
</svg>