<?xml version="1.0" encoding="UTF-8" standalone="no"?>
<svg width="40px" height="40px" viewBox="0 0 40 40" version="1.1" xmlns="http://www.w3.org/2000/svg" xmlns:xlink="http://www.w3.org/1999/xlink">
    <!-- Generator: Sketch 45.1 (43504) - http://www.bohemiancoding.com/sketch -->
    <title>menu_rock_off</title>
    <desc>Created with Sketch.</desc>
    <defs>
        <linearGradient x1="54.981029%" y1="90.0064444%" x2="54.9810305%" y2="0%" id="linearGradient-1">
            <stop stop-color="#F69957" offset="0%"></stop>
            <stop stop-color="#F8C268" offset="100%"></stop>
        </linearGradient>
        <linearGradient x1="50%" y1="0%" x2="50%" y2="100%" id="linearGradient-2">
            <stop stop-color="#FFFFFF" stop-opacity="0.5" offset="0%"></stop>
            <stop stop-color="#000000" stop-opacity="0.5" offset="100%"></stop>
        </linearGradient>
        <rect id="path-3" x="19" y="22" width="3" height="9" rx="1.5"></rect>
    </defs>
    <g id="menu" stroke="none" stroke-width="1" fill="none" fill-rule="evenodd">
        <g id="menu_rock_off">
            <path d="M28.5,16.5 L28.5,11 C28.5,6.30481286 24.694868,2.5 20,2.5 C15.3032893,2.5 11.5,6.30424245 11.5,11 L11.5,16.5 L24.3657088,16.5 L28.5,16.5 Z M28.6578947,16.5 L11.6578947,16.5 L11.6578947,10.8421053 C11.6578947,6.22636054 15.469293,2.5 20.1578947,2.5 C24.8450185,2.5 28.6578947,6.22655892 28.6578947,10.8421053 L28.6578947,16.5 Z" id="Combined-Shape" stroke="url(#linearGradient-1)" stroke-width="3"></path>
            <rect id="Rectangle" stroke="url(#linearGradient-1)" stroke-width="3" x="7.5" y="16.5" width="26" height="20" rx="6"></rect>
            <g id="Rectangle-2">
                <use fill="url(#linearGradient-2)" fill-rule="evenodd" xlink:href="#path-3"></use>
                <rect stroke="url(#linearGradient-1)" stroke-width="3" x="20.5" y="23.5" width="1" height="6" rx="0.5"></rect>
            </g>
        </g>
    </g>
</svg>