<?xml version="1.0" encoding="UTF-8" standalone="no"?>
<svg width="40px" height="40px" viewBox="0 0 40 40" version="1.1" xmlns="http://www.w3.org/2000/svg" xmlns:xlink="http://www.w3.org/1999/xlink">
    <!-- Generator: Sketch 45.1 (43504) - http://www.bohemiancoding.com/sketch -->
    <title>menu_delete</title>
    <desc>Created with Sketch.</desc>
    <defs>
        <linearGradient x1="50%" y1="0%" x2="50%" y2="100%" id="linearGradient-1">
            <stop stop-color="#F8C267" offset="0%"></stop>
            <stop stop-color="#F69957" offset="100%"></stop>
        </linearGradient>
    </defs>
    <g id="menu" stroke="none" stroke-width="1" fill="none" fill-rule="evenodd">
        <g id="menu_delete" fill="url(#linearGradient-1)">
            <path d="M4.00683848,10 C4.00229664,10.0959441 4,10.1924774 4,10.2895485 L4,32.992173 C4,36.3046043 6.68426814,39 9.99548069,39 L29.0045193,39 C32.3166691,39 35,36.3102043 35,32.992173 L35,10.2895485 C35,10.1924851 34.9976951,10.0959515 34.9931372,10 L32,10 L32,32.9925801 C32,34.6535323 30.6558914,36 29.0092478,36 L9.99075223,36 C8.33900538,36 7,34.6544607 7,32.9925801 L7,10 L4.00683848,10 Z" id="Combined-Shape"></path>
            <path d="M1,6.5 C1,5.67157288 1.67378907,5 2.49626982,5 L36.5037302,5 C37.3300972,5 38,5.66579723 38,6.5 C38,7.32842712 37.3262109,8 36.5037302,8 L2.49626982,8 C1.66990282,8 1,7.33420277 1,6.5 Z M15,2.5 C15,1.67157288 15.6764628,1 16.5063976,1 L22.4936024,1 C23.3255628,1 24,1.66579723 24,2.5 C24,3.32842712 23.3235372,4 22.4936024,4 L16.5063976,4 C15.6744372,4 15,3.33420277 15,2.5 Z" id="Combined-Shape"></path>
            <path d="M13,14.5037099 C13,13.6732339 13.6657972,13 14.5,13 C15.3284271,13 16,13.661977 16,14.5037099 L16,29.4962901 C16,30.3267661 15.3342028,31 14.5,31 C13.6715729,31 13,30.338023 13,29.4962901 L13,14.5037099 Z M23,14.5037099 C23,13.6732339 23.6657972,13 24.5,13 C25.3284271,13 26,13.661977 26,14.5037099 L26,29.4962901 C26,30.3267661 25.3342028,31 24.5,31 C23.6715729,31 23,30.338023 23,29.4962901 L23,14.5037099 Z" id="Combined-Shape"></path>
        </g>
    </g>
</svg>