<?xml version="1.0" encoding="UTF-8" standalone="no"?>
<svg width="40px" height="40px" viewBox="0 0 40 40" version="1.1" xmlns="http://www.w3.org/2000/svg" xmlns:xlink="http://www.w3.org/1999/xlink">
    <!-- Generator: Sketch 45.1 (43504) - http://www.bohemiancoding.com/sketch -->
    <title>menu_copy</title>
    <desc>Created with Sketch.</desc>
    <defs>
        <linearGradient x1="57.5878792%" y1="0%" x2="57.5878799%" y2="104.550617%" id="linearGradient-1">
            <stop stop-color="#82C9F0" offset="0%"></stop>
            <stop stop-color="#76ADF3" offset="100%"></stop>
        </linearGradient>
    </defs>
    <g id="menu" stroke="none" stroke-width="1" fill="none" fill-rule="evenodd">
        <g id="menu_copy">
            <path d="M9,7.00000365 C9.00009291,3.68627718 11.6848152,1 15.0067025,1 L30.9932975,1 C34.3107077,1 37,3.68697795 37,7.00017566 L37,26.9998243 C37,30.3114009 34.3188528,32.9963858 31,32.9999964 L31,29.9999933 C32.6608062,29.9963945 34,28.6557339 34,26.9998243 L34,7.00017566 C34,5.3443058 32.6543261,4 30.9932975,4 L15.0067025,4 C13.3428571,4 12.0000948,5.34194433 12,7 L9.00670248,7 C9.00446803,7 9.00223387,7.00000122 9,7.00000365 Z" id="Combined-Shape" fill="url(#linearGradient-1)"></path>
            <path d="M6,13.0001757 L6,32.9998243 C6,34.6556942 7.34567394,36 9.00670248,36 L24.9932975,36 C26.6572016,36 28,34.6579609 28,32.9998243 L28,13.0001757 C28,11.3443058 26.6543261,10 24.9932975,10 L9.00670248,10 C7.34279837,10 6,11.3420391 6,13.0001757 Z M3,13.0001757 C3,9.68637015 5.68475771,7 9.00670248,7 L24.9932975,7 C28.3107077,7 31,9.68697795 31,13.0001757 L31,32.9998243 C31,36.3136299 28.3152423,39 24.9932975,39 L9.00670248,39 C5.6892923,39 3,36.3130221 3,32.9998243 L3,13.0001757 Z" id="Rectangle" fill="url(#linearGradient-1)" fill-rule="nonzero"></path>
            <path d="M10.5,15.5 C10.5,15.5017084 10.4982811,15.5 10.5052412,15.5 L23.4947588,15.5 C23.5022215,15.5 23.5,15.5022207 23.5,15.5 C23.5,15.4982916 23.5017189,15.5 23.4947588,15.5 L10.5052412,15.5 C10.4977785,15.5 10.5,15.4977793 10.5,15.5 Z M10.5,22.5 C10.5,22.5017084 10.4982811,22.5 10.5052412,22.5 L23.4947588,22.5 C23.5022215,22.5 23.5,22.5022207 23.5,22.5 C23.5,22.4982916 23.5017189,22.5 23.4947588,22.5 L10.5052412,22.5 C10.4977785,22.5 10.5,22.4977793 10.5,22.5 Z M10.5,29.5 C10.5,29.5017084 10.4982811,29.5 10.5052412,29.5 L23.4947588,29.5 C23.5022215,29.5 23.5,29.5022207 23.5,29.5 C23.5,29.4982916 23.5017189,29.5 23.4947588,29.5 L10.5052412,29.5 C10.4977785,29.5 10.5,29.4977793 10.5,29.5 Z" id="Combined-Shape" stroke="url(#linearGradient-1)" stroke-width="3"></path>
        </g>
    </g>
</svg>