<?xml version="1.0" encoding="UTF-8" standalone="no"?>
<svg width="40px" height="40px" viewBox="0 0 40 40" version="1.1" xmlns="http://www.w3.org/2000/svg" xmlns:xlink="http://www.w3.org/1999/xlink">
    <!-- Generator: Sketch 45.1 (43504) - http://www.bohemiancoding.com/sketch -->
    <title>menu_name</title>
    <desc>Created with Sketch.</desc>
    <defs>
        <linearGradient x1="57.5878792%" y1="0%" x2="57.5878799%" y2="104.550617%" id="linearGradient-1">
            <stop stop-color="#82C9F0" offset="0%"></stop>
            <stop stop-color="#76ADF3" offset="100%"></stop>
        </linearGradient>
    </defs>
    <g id="menu" stroke="none" stroke-width="1" fill="none" fill-rule="evenodd">
        <g id="menu_name">
            <path d="M30,27 L30.9946773,27 C32.6622783,27 34,25.6618758 34,24.0013241 L34,16.9986759 C34,15.3402022 32.6595759,14 31.0029293,14 L30,14 L30,11 L31.0029293,11 C34.31502,11 37,13.681938 37,16.9986759 L37,24.0013241 C37,27.3143013 34.3235601,30 30.9946773,30 L30,30 L30,27 Z M30,30 L30,27 L30.9946773,27 C32.6622783,27 34,25.6618758 34,24.0013241 L34,16.9986759 C34,15.3402022 32.6595759,14 31.0029293,14 L30,14 L30,11 L31.0029293,11 C34.31502,11 37,13.681938 37,16.9986759 L37,24.0013241 C37,27.3143013 34.3235601,30 30.9946773,30 L30,30 Z M21,14 L7.00055701,14 C5.3464642,14 4,15.3451626 4,16.9986759 L4,24.0013241 C4,25.6588734 5.34319424,27 7.00532266,27 L21,27 L21,30 L7.00532266,30 C3.68867454,30 1,27.318062 1,24.0013241 L1,16.9986759 C1,13.6856987 3.69222081,11 7.00055701,11 L21,11 L21,14 Z M21,11 L21,14 L7.00055701,14 C5.3464642,14 4,15.3451626 4,16.9986759 L4,24.0013241 C4,25.6588734 5.34319424,27 7.00532266,27 L21,27 L21,30 L7.00532266,30 C3.68867454,30 1,27.318062 1,24.0013241 L1,16.9986759 C1,13.6856987 3.69222081,11 7.00055701,11 L21,11 Z" id="Rectangle" fill="url(#linearGradient-1)" fill-rule="nonzero"></path>
            <path d="M25.5,4.5 L25.5,36.5 L19.4930964,36.5 C19.4961725,36.5 19.5,36.4961466 19.5,36.5 C19.5,36.5044349 19.4955737,36.5 19.4930964,36.5 L31.5069036,36.5 C31.5038275,36.5 31.5,36.5038534 31.5,36.5 C31.5,36.4955651 31.5044263,36.5 31.5069036,36.5 L25.5,36.5 L25.5,4.5 L31.5069036,4.5 C31.5038275,4.5 31.5,4.50385339 31.5,4.5 C31.5,4.49556507 31.5044263,4.5 31.5069036,4.5 L19.4930964,4.5 C19.4961725,4.5 19.5,4.49614661 19.5,4.5 C19.5,4.50443493 19.4955737,4.5 19.4930964,4.5 L24,4.5 L25.5,4.5 Z" id="Combined-Shape" stroke="url(#linearGradient-1)" stroke-width="3"></path>
            <rect id="Rectangle-3" stroke="url(#linearGradient-1)" stroke-width="3" x="7.5" y="20.5" width="9" height="1" rx="0.5"></rect>
        </g>
    </g>
</svg>